<?xml version="1.0" encoding="utf-8"?>
<!-- Generator: Adobe Illustrator 28.0.0, SVG Export Plug-In . SVG Version: 6.00 Build 0)  -->
<svg version="1.1" id="Layer_1" xmlns="http://www.w3.org/2000/svg" xmlns:xlink="http://www.w3.org/1999/xlink" x="0px" y="0px"
	 viewBox="0 0 1366 768" style="enable-background:new 0 0 1366 768;" xml:space="preserve">
<style type="text/css">
	
		.st0{clip-path:url(#SVGID_00000166653808844566744700000006440525270859337399_);fill-rule:evenodd;clip-rule:evenodd;fill:#00ADEE;}
	.st1{fill:#231F20;}
	.st2{font-family:'Frutiger-Bold';}
	.st3{font-size:8.424px;}
</style>
<g>
	<defs>
		<rect id="SVGID_1_" x="595.95" y="368.12" width="173.42" height="32.01"/>
	</defs>
	<clipPath id="SVGID_00000157279148239685545950000011379743830368226746_">
		<use xlink:href="#SVGID_1_"  style="overflow:visible;"/>
	</clipPath>
	
		<path style="clip-path:url(#SVGID_00000157279148239685545950000011379743830368226746_);fill-rule:evenodd;clip-rule:evenodd;fill:#00ADEE;" d="
		M636.82,382.15c0,0,0,0.64,0.47,1.11c0.59,0.59,0.87,0.49,0.87,0.49h7.44c0,0,0.64,0.06,1.2-0.52c0.5-0.52,0.52-1.09,0.52-1.09
		v-8.44c-0.01,0.02-0.02-0.55-0.52-1.07c-0.55-0.58-1.17-0.55-1.2-0.54c-0.05,0.02-7.44,0-7.44,0s-0.37,0.02-0.87,0.52
		c-0.45,0.45-0.47,0.76-0.47,0.83V382.15z M607.42,372.09v3.91h11.21c0,0,1.99-0.23,1.99-1.98c0-1.42-1.48-1.93-1.48-1.93H607.42z
		 M607.42,383.78h11.73c0,0,1.48-0.51,1.48-1.93c0-1.75-1.99-1.98-1.99-1.98h-11.21V383.78z M599.4,368.22h22.95
		c0,0,1.79,0.12,3.03,1.35c1.07,1.07,1.68,2.13,1.68,3.5c0,3.08-2.75,4.49-2.75,4.49s2.2,0.18,3.55,1.68
		c0.35,0.38,0.89,1.36,0.89,1.36v-9.57c0,0-0.12-1.54,0.7-2.37c0.55-0.55,1.13-0.45,1.13-0.45h24.83h7.23l5.61,6.65l5.88-6.65h30.99
		v3.88h-14.58c0,0-1.27,0.4-1.27,1.86c0,1.61,2.07,1.82,2.07,1.82h14.82c0,0,0.88,0,1.62,0.74c0.4,0.4,0.66,1.25,0.67,1.27
		c0.08,0.13,0.2,0,0.2,0v-9.57h23.39v3.88h-15.49v3.69h15.49v4.09h-15.49v3.89h19.32v-15.54h7.95l11.76,13.15v-13.15h7.97v19.67
		h-7.97l-11.76-13.48v13.48h-35.17v-2.56c0,0-0.02,0.91-0.69,1.58c-1.11,1.1-1.77,0.98-1.77,0.98H681.2v-4.13h17.82
		c0,0,1.64-0.34,1.64-1.95c0-1.79-1.64-1.82-1.64-1.82h-16.05c0,0-0.74-0.06-1.24-0.56c-0.47-0.47-0.53-0.95-0.53-0.95v-7.45
		l-8.91,10.33v6.52h-8.05v-6.52l-8.84-10.33v14.3c0,0,0.03,1.24-0.45,1.79c-0.76,0.87-1.73,0.78-1.73,0.78h-22.65
		c0,0-0.59,0.04-1.15-0.52c-0.62-0.62-0.68-2.11-0.68-2.11s-0.47,0.81-0.89,1.23c-1.26,1.26-3.1,1.4-3.1,1.4H599.4V368.22z"/>
</g>
<text transform="matrix(1 0 0 1 598.8179 396.7911)"><tspan x="0" y="0" class="st1 st2 st3">I</tspan><tspan x="2.85" y="0" class="st1 st2 st3">NN</tspan><tspan x="16.07" y="0" class="st1 st2 st3">O</tspan><tspan x="23.13" y="0" class="st1 st2 st3">VA</tspan><tspan x="35.88" y="0" class="st1 st2 st3">TIO</tspan><tspan x="50.99" y="0" class="st1 st2 st3">N</tspan><tspan x="57.6" y="0" class="st1 st2 st3">E</tspan><tspan x="62.79" y="0" class="st1 st2 st3">N</tspan><tspan x="69.4" y="0" class="st1 st2 st3"> </tspan><tspan x="72.25" y="0" class="st1 st2 st3">A</tspan><tspan x="78.86" y="0" class="st1 st2 st3">B</tspan><tspan x="84.52" y="0" class="st1 st2 st3">GA</tspan><tspan x="97.73" y="0" class="st1 st2 st3">STEC</tspan><tspan x="118.98" y="0" class="st1 st2 st3">HN</tspan><tspan x="132.19" y="0" class="st1 st2 st3">OL</tspan><tspan x="143.98" y="0" class="st1 st2 st3">OG</tspan><tspan x="157.66" y="0" class="st1 st2 st3">I</tspan><tspan x="160.52" y="0" class="st1 st2 st3">E</tspan></text>
</svg>
